<svg width="40" height="40" viewBox="0 0 40 40" fill="none" xmlns="http://www.w3.org/2000/svg">
<mask id="mask0_592_15637" style="mask-type:alpha" maskUnits="userSpaceOnUse" x="0" y="0" width="40" height="40">
<path d="M40 20C40 31.0457 31.0457 40 20 40C8.9543 40 0 31.0457 0 20C0 8.9543 8.9543 0 20 0C31.0457 0 40 8.9543 40 20Z" fill="#D9D9D9"/>
</mask>
<g mask="url(#mask0_592_15637)">
<path fill-rule="evenodd" clip-rule="evenodd" d="M54.9944 -7.43872C36.6431 -7.43872 21.7664 7.438 21.7664 25.7894V57.8946H20.6436V25.7894C20.6436 6.81789 36.023 -8.56152 54.9944 -8.56152C73.9659 -8.56152 89.3453 6.81789 89.3453 25.7894H88.2225C88.2225 7.438 73.3458 -7.43872 54.9944 -7.43872Z" fill="#2173F2"/>
<path fill-rule="evenodd" clip-rule="evenodd" d="M54.9945 -5.11547C37.9262 -5.11547 24.0896 8.72111 24.0896 25.7894V52.1403H22.9668V25.7894C22.9668 8.101 37.3061 -6.23828 54.9945 -6.23828C72.6829 -6.23828 87.0222 8.101 87.0222 25.7894H85.8994C85.8994 8.72111 72.0628 -5.11547 54.9945 -5.11547Z" fill="#2173F2"/>
<path fill-rule="evenodd" clip-rule="evenodd" d="M54.9945 -2.79223C39.2093 -2.79223 26.4128 10.0042 26.4128 25.7895V49.1579H25.29V25.7895C25.29 9.38412 38.5892 -3.91504 54.9945 -3.91504C71.3999 -3.91504 84.699 9.38412 84.699 25.7895H83.5762C83.5762 10.0042 70.7798 -2.79223 54.9945 -2.79223Z" fill="#2173F2"/>
<path fill-rule="evenodd" clip-rule="evenodd" d="M54.9946 -0.46899C40.4924 -0.46899 28.7361 11.2873 28.7361 25.7895V46.9474H27.6133V25.7895C27.6133 10.6672 39.8723 -1.5918 54.9946 -1.5918C70.1169 -1.5918 82.3759 10.6672 82.3759 25.7895H81.2531C81.2531 11.2873 69.4968 -0.46899 54.9946 -0.46899Z" fill="#2173F2"/>
<path fill-rule="evenodd" clip-rule="evenodd" d="M54.9946 1.85425C41.7755 1.85425 31.0593 12.5705 31.0593 25.7896V45.2983H29.9365V25.7896C29.9365 11.9504 41.1554 0.731445 54.9946 0.731445C68.8339 0.731445 80.0528 11.9504 80.0528 25.7896H78.93C78.93 12.5705 68.2138 1.85425 54.9946 1.85425Z" fill="#2173F2"/>
<path fill-rule="evenodd" clip-rule="evenodd" d="M-15.053 -7.43872C3.29833 -7.43872 18.175 7.438 18.175 25.7894V57.8946H19.2979V25.7894C19.2979 6.81789 3.91844 -8.56152 -15.053 -8.56152C-34.0245 -8.56152 -49.4039 6.81789 -49.4039 25.7894H-48.2811C-48.2811 7.438 -33.4044 -7.43872 -15.053 -7.43872Z" fill="#2173F2"/>
<path fill-rule="evenodd" clip-rule="evenodd" d="M-15.0531 -5.11547C2.01522 -5.11547 15.8518 8.72111 15.8518 25.7894V52.1403H16.9746V25.7894C16.9746 8.101 2.63533 -6.23828 -15.0531 -6.23828C-32.7415 -6.23828 -47.0808 8.101 -47.0808 25.7894H-45.958C-45.958 8.72111 -32.1214 -5.11547 -15.0531 -5.11547Z" fill="#2173F2"/>
<path fill-rule="evenodd" clip-rule="evenodd" d="M-15.0531 -2.79223C0.7321 -2.79223 13.5286 10.0042 13.5286 25.7895V49.1579H14.6514V25.7895C14.6514 9.38412 1.35221 -3.91504 -15.0531 -3.91504C-31.4585 -3.91504 -44.7576 9.38412 -44.7576 25.7895H-43.6348C-43.6348 10.0042 -30.8384 -2.79223 -15.0531 -2.79223Z" fill="#2173F2"/>
<path fill-rule="evenodd" clip-rule="evenodd" d="M-15.0532 -0.46899C-0.551016 -0.46899 11.2053 11.2873 11.2053 25.7895V46.9474H12.3281V25.7895C12.3281 10.6672 0.0690928 -1.5918 -15.0532 -1.5918C-30.1755 -1.5918 -42.4345 10.6672 -42.4345 25.7895H-41.3117C-41.3117 11.2873 -29.5554 -0.46899 -15.0532 -0.46899Z" fill="#2173F2"/>
<path fill-rule="evenodd" clip-rule="evenodd" d="M-15.0532 1.85425C-1.83413 1.85425 8.88208 12.5705 8.88208 25.7896V45.2983H10.0049V25.7896C10.0049 11.9504 -1.21402 0.731445 -15.0532 0.731445C-28.8925 0.731445 -40.1114 11.9504 -40.1114 25.7896H-38.9886C-38.9886 12.5705 -28.2724 1.85425 -15.0532 1.85425Z" fill="#2173F2"/>
</g>
</svg>
