<svg width="40" height="24" viewBox="0 0 40 24" fill="none" xmlns="http://www.w3.org/2000/svg">
<path d="M23.4343 17.113V24H30.303C35.6585 24 40 19.5151 40 13.9826V6.88696H33.3333V13.7739C33.3333 15.6181 31.8862 17.113 30.101 17.113H23.4343Z" fill="#2173F2"/>
<path d="M16.5657 6.88696V0H9.69697C4.34148 0 0 4.48494 0 10.0174V17.113H6.66667V10.2261C6.66667 8.38194 8.11383 6.88696 9.89899 6.88696H16.5657Z" fill="#2173F2"/>
<path d="M6.66666 18.5613L6.66667 17.113C17.0707 17.113 18.8889 0.208705 33.3333 0.208705V6.88696C22.3232 6.88696 22.5253 23.7912 6.66667 23.7912C6.66663 22.4251 6.66664 20.3165 6.66666 18.5613Z" fill="#2173F2"/>
</svg>
